# xmcd
#
# Track frame offsets:
#	150
#	16289
#	29496
#	39248
#	52940
#	70545
#	99421
#	110867
#	126157
#	138844
#	188919
#
# Disc length: 2629 seconds
#
# Revision: 1
# Processed by: cddbd v1.5.2PL0 Copyright (c) Steve Scherf et al.
# Submitted via: audiograbber 1.83.01
#
DISCID=8d0a430b
DTITLE=Sidetrack, The - Baby
DYEAR=1900
DGENRE=Rock
TTITLE0=Rock and Roll
TTITLE1=Peace Of Mind
TTITLE2=Summership
TTITLE3=2314 - B
TTITLE4=Knowing What You Hold So Dear
TTITLE5=Baby
TTITLE6=Colors
TTITLE7=Wild Eyes
TTITLE8=Monkey
TTITLE9=Sweet Substitute
TTITLE10=Blues For Matthew
EXTD=
EXTT0=
EXTT1=
EXTT2=
EXTT3=
EXTT4=
EXTT5=
EXTT6=
EXTT7=
EXTT8=
EXTT9=
EXTT10=
PLAYORDER=
